<svg xmlns="http://www.w3.org/2000/svg" xmlns:xlink="http://www.w3.org/1999/xlink" viewBox="0 0 833.08 1000"><defs><style>.cls-1{fill:url(#Degradado_sin_nombre_79);}</style><linearGradient id="Degradado_sin_nombre_79" x1="-11.79" y1="911.62" x2="740.28" y2="159.54" gradientUnits="userSpaceOnUse"><stop offset="0" stop-color="#299a9f"/><stop offset="0.5" stop-color="#05c898"/><stop offset="0.99" stop-color="#a6ce90"/></linearGradient></defs><g id="Capa_2" data-name="Capa 2"><g id="Capa_1-2" data-name="Capa 1"><path class="cls-1" d="M162.65,43.46c0,57.94,103.08,57.94,103.08,0S162.65-14.49,162.65,43.46Zm670.43,496.7v47.4c-42.78,0-48,24.13-48,43.91V825.58l-87.21,87.21V620.23c0-25.71,2.87-46.53,48.18-56.11-45.31-10.11-48.18-30.49-48.18-56.54v-249a43.61,43.61,0,1,0-87.21,0V869.14a130.86,130.86,0,1,1-261.72,0V258.58a43.61,43.61,0,1,0-87.21,0v256c-.79,22.47-7.06,40.33-48.09,49.13,41,9.06,47.3,26.66,48.09,49.32V869.14A130.86,130.86,0,1,1,0,869.14V476.65l87.21-87.3V869.14a43.65,43.65,0,0,0,87.3,0V631.47c0-19.78-5.23-43.91-48-43.91v-47.4c42.78,0,48-24,48-43.91V258.58a130.82,130.82,0,1,1,261.63,0V869.14a43.65,43.65,0,0,0,87.3,0V258.58a130.82,130.82,0,1,1,261.63,0V496.25C785.07,516.11,790.3,540.16,833.08,540.16Z"/></g></g></svg>